<svg id="visual" viewBox="0 0 960 540" width="960" height="540" xmlns="http://www.w3.org/2000/svg" xmlns:xlink="http://www.w3.org/1999/xlink" version="1.1"><path d="M940 540L938.3 495C936.7 450 933.3 360 931.7 270C930 180 930 90 930 45L930 0L960 0L960 45C960 90 960 180 960 270C960 360 960 450 960 495L960 540Z" fill="#4e00c2"></path><path d="M863 540L863 495C863 450 863 360 869.3 270C875.7 180 888.3 90 894.7 45L901 0L931 0L931 45C931 90 931 180 932.7 270C934.3 360 937.7 450 939.3 495L941 540Z" fill="#5c00c8"></path><path d="M834 540L834 495C834 450 834 360 838.8 270C843.7 180 853.3 90 858.2 45L863 0L902 0L895.7 45C889.3 90 876.7 180 870.3 270C864 360 864 450 864 495L864 540Z" fill="#6900ce"></path><path d="M767 540L770.2 495C773.3 450 779.7 360 782.8 270C786 180 786 90 786 45L786 0L864 0L859.2 45C854.3 90 844.7 180 839.8 270C835 360 835 450 835 495L835 540Z" fill="#7500d4"></path><path d="M585 540L597.7 495C610.3 450 635.7 360 643.7 270C651.7 180 642.3 90 637.7 45L633 0L787 0L787 45C787 90 787 180 783.8 270C780.7 360 774.3 450 771.2 495L768 540Z" fill="#8200da"></path><path d="M527 540L543 495C559 450 591 360 605.3 270C619.7 180 616.3 90 614.7 45L613 0L634 0L638.7 45C643.3 90 652.7 180 644.7 270C636.7 360 611.3 450 598.7 495L586 540Z" fill="#8e00df"></path><path d="M508 540L522.3 495C536.7 450 565.3 360 571.7 270C578 180 562 90 554 45L546 0L614 0L615.7 45C617.3 90 620.7 180 606.3 270C592 360 560 450 544 495L528 540Z" fill="#9a00e5"></path><path d="M469 540L472.3 495C475.7 450 482.3 360 485.7 270C489 180 489 90 489 45L489 0L547 0L555 45C563 90 579 180 572.7 270C566.3 360 537.7 450 523.3 495L509 540Z" fill="#a600ea"></path><path d="M412 540L415.2 495C418.3 450 424.7 360 432.7 270C440.7 180 450.3 90 455.2 45L460 0L490 0L490 45C490 90 490 180 486.7 270C483.3 360 476.7 450 473.3 495L470 540Z" fill="#b200f0"></path><path d="M258 540L256.5 495C255 450 252 360 245.7 270C239.3 180 229.7 90 224.8 45L220 0L461 0L456.2 45C451.3 90 441.7 180 433.7 270C425.7 360 419.3 450 416.2 495L413 540Z" fill="#be00f5"></path><path d="M181 540L176.3 495C171.7 450 162.3 360 157.7 270C153 180 153 90 153 45L153 0L221 0L225.8 45C230.7 90 240.3 180 246.7 270C253 360 256 450 257.5 495L259 540Z" fill="#ca00fa"></path><path d="M0 540L0 495C0 450 0 360 0 270C0 180 0 90 0 45L0 0L154 0L154 45C154 90 154 180 158.7 270C163.3 360 172.7 450 177.3 495L182 540Z" fill="#d600ff"></path></svg>