<svg id="visual" viewBox="0 0 960 540" width="960" height="540" xmlns="http://www.w3.org/2000/svg" xmlns:xlink="http://www.w3.org/1999/xlink" version="1.1"><path d="M805 540L768.3 495C731.7 450 658.3 360 632.8 270C607.3 180 629.7 90 640.8 45L652 0L960 0L960 45C960 90 960 180 960 270C960 360 960 450 960 495L960 540Z" fill="#4e00c2"></path><path d="M633 540L585 495C537 450 441 360 431.3 270C421.7 180 498.3 90 536.7 45L575 0L653 0L641.8 45C630.7 90 608.3 180 633.8 270C659.3 360 732.7 450 769.3 495L806 540Z" fill="#9400e2"></path><path d="M0 540L0 495C0 450 0 360 0 270C0 180 0 90 0 45L0 0L576 0L537.7 45C499.3 90 422.7 180 432.3 270C442 360 538 450 586 495L634 540Z" fill="#d600ff"></path></svg>