<svg id="visual" viewBox="0 0 960 540" width="960" height="540" xmlns="http://www.w3.org/2000/svg" xmlns:xlink="http://www.w3.org/1999/xlink" version="1.1"><path d="M0 325L22.8 316.8C45.7 308.7 91.3 292.3 137 288.2C182.7 284 228.3 292 274 302.7C319.7 313.3 365.3 326.7 411.2 331.2C457 335.7 503 331.3 548.8 324.2C594.7 317 640.3 307 686 308.5C731.7 310 777.3 323 823 324.7C868.7 326.3 914.3 316.7 937.2 311.8L960 307L960 541L937.2 541C914.3 541 868.7 541 823 541C777.3 541 731.7 541 686 541C640.3 541 594.7 541 548.8 541C503 541 457 541 411.2 541C365.3 541 319.7 541 274 541C228.3 541 182.7 541 137 541C91.3 541 45.7 541 22.8 541L0 541Z" fill="#b97cfd"></path><path d="M0 313L22.8 319C45.7 325 91.3 337 137 351.5C182.7 366 228.3 383 274 385.2C319.7 387.3 365.3 374.7 411.2 359.8C457 345 503 328 548.8 328.3C594.7 328.7 640.3 346.3 686 351.8C731.7 357.3 777.3 350.7 823 345.3C868.7 340 914.3 336 937.2 334L960 332L960 541L937.2 541C914.3 541 868.7 541 823 541C777.3 541 731.7 541 686 541C640.3 541 594.7 541 548.8 541C503 541 457 541 411.2 541C365.3 541 319.7 541 274 541C228.3 541 182.7 541 137 541C91.3 541 45.7 541 22.8 541L0 541Z" fill="#ac6bfc"></path><path d="M0 403L22.8 399.8C45.7 396.7 91.3 390.3 137 390.5C182.7 390.7 228.3 397.3 274 394.7C319.7 392 365.3 380 411.2 371.7C457 363.3 503 358.7 548.8 364.3C594.7 370 640.3 386 686 396.7C731.7 407.3 777.3 412.7 823 416.5C868.7 420.3 914.3 422.7 937.2 423.8L960 425L960 541L937.2 541C914.3 541 868.7 541 823 541C777.3 541 731.7 541 686 541C640.3 541 594.7 541 548.8 541C503 541 457 541 411.2 541C365.3 541 319.7 541 274 541C228.3 541 182.7 541 137 541C91.3 541 45.7 541 22.8 541L0 541Z" fill="#9e5afb"></path><path d="M0 402L22.8 411.2C45.7 420.3 91.3 438.7 137 444.2C182.7 449.7 228.3 442.3 274 435.8C319.7 429.3 365.3 423.7 411.2 423.2C457 422.7 503 427.3 548.8 429C594.7 430.7 640.3 429.3 686 432.7C731.7 436 777.3 444 823 448.8C868.7 453.7 914.3 455.3 937.2 456.2L960 457L960 541L937.2 541C914.3 541 868.7 541 823 541C777.3 541 731.7 541 686 541C640.3 541 594.7 541 548.8 541C503 541 457 541 411.2 541C365.3 541 319.7 541 274 541C228.3 541 182.7 541 137 541C91.3 541 45.7 541 22.8 541L0 541Z" fill="#8f48fb"></path><path d="M0 480L22.8 479C45.7 478 91.3 476 137 467.7C182.7 459.3 228.3 444.7 274 442.8C319.7 441 365.3 452 411.2 460.2C457 468.3 503 473.7 548.8 471C594.7 468.3 640.3 457.7 686 454.8C731.7 452 777.3 457 823 455.8C868.7 454.7 914.3 447.3 937.2 443.7L960 440L960 541L937.2 541C914.3 541 868.7 541 823 541C777.3 541 731.7 541 686 541C640.3 541 594.7 541 548.8 541C503 541 457 541 411.2 541C365.3 541 319.7 541 274 541C228.3 541 182.7 541 137 541C91.3 541 45.7 541 22.8 541L0 541Z" fill="#7e35fa"></path><path d="M0 498L22.8 497.7C45.7 497.3 91.3 496.7 137 492.7C182.7 488.7 228.3 481.3 274 483.3C319.7 485.3 365.3 496.7 411.2 496.3C457 496 503 484 548.8 479.5C594.7 475 640.3 478 686 483.5C731.7 489 777.3 497 823 500.2C868.7 503.3 914.3 501.7 937.2 500.8L960 500L960 541L937.2 541C914.3 541 868.7 541 823 541C777.3 541 731.7 541 686 541C640.3 541 594.7 541 548.8 541C503 541 457 541 411.2 541C365.3 541 319.7 541 274 541C228.3 541 182.7 541 137 541C91.3 541 45.7 541 22.8 541L0 541Z" fill="#6a1df9"></path></svg>